<?xml version="1.0" standalone="no"?>
<!DOCTYPE svg PUBLIC "-//W3C//DTD SVG 1.1//EN" "http://www.w3.org/Graphics/SVG/1.1/DTD/svg11.dtd" >
<svg>
<metadata>
Created by FontForge 20090622 at Thu Jan 16 21:08:37 2020
 By deploy user
(c) Copyright 1994&#226;&#128;&#144;1996 International Typeface Corporation  All rights reserved.
</metadata>
<defs>
<font id="FlatironITCTT" horiz-adv-x="1000" >
  <font-face 
    font-family="FlatironITC TT"
    font-weight="400"
    font-stretch="normal"
    units-per-em="1000"
    panose-1="0 0 4 0 0 0 0 0 0 0"
    ascent="800"
    descent="-200"
    x-height="526"
    cap-height="527"
    bbox="-177 -236 2756 813"
    underline-thickness="69"
    underline-position="-48"
    unicode-range="U+0020-U+F002"
  />
<missing-glyph horiz-adv-x="500" 
d="M63 0v751h375v-751h-375zM125 63h250v626h-250v-626z" />
    <glyph glyph-name=".notdef" horiz-adv-x="500" 
d="M63 0v751h375v-751h-375zM125 63h250v626h-250v-626z" />
    <glyph glyph-name=".null" horiz-adv-x="0" 
 />
    <glyph glyph-name="nonmarkingreturn" horiz-adv-x="319" 
 />
    <glyph glyph-name="space" unicode=" " horiz-adv-x="319" 
 />
    <glyph glyph-name="exclam" unicode="!" horiz-adv-x="384" 
d="M191 -17q-51 0 -81 17.5t-30 42.5t31.5 43.5t82.5 18.5q50 0 80 -17.5t30 -42.5q0 -26 -30.5 -44t-82.5 -18zM233 153h-88l-26 374h142z" />
    <glyph glyph-name="quotedbl" unicode="&#x22;" horiz-adv-x="300" 
d="M112 701v-271h-68v271h68zM256 701v-271h-68v271h68z" />
    <glyph glyph-name="numbersign" unicode="#" horiz-adv-x="1148" 
d="M1060 338h-203l-52 -141h213l-27 -66h-212l-48 -131h-102l50 131h-287l-51 -131h-100l50 131h-226l26 66h222l54 141h-227l26 66h224l47 123h103l-48 -123h288l48 123h101l-47 -123h202zM468 338l-53 -141h289l50 141h-286z" />
    <glyph glyph-name="dollar" unicode="$" horiz-adv-x="1405" 
d="M60 48v96q278 -71 641 -71q285 0 400 15q130 18 130 63q0 52 -184 65q-53 4 -240 4h-229q-278 0 -381 26q-126 31 -126 123q0 81 104 121q98 38 316 51l17 1v125h86v-122h9l97 2l82 -1v122h85v-125q206 -3 456 -54v-92l-40 7q-280 49 -584 49q-514 0 -514 -82
q0 -37 98 -49q76 -9 296 -9h220q291 0 410 -31q136 -35 136 -128q0 -171 -457 -171h-21v-132h-85v130h-12l-84 -1l-92 1v-129h-86v134q-189 1 -448 62z" />
    <glyph glyph-name="percent" unicode="%" horiz-adv-x="1715" 
d="M495 0l598 533h132l-606 -533h-124zM394 259q-181 0 -266 33q-88 35 -88 108q0 142 350 142q351 0 351 -142q0 -141 -347 -141zM1328 -6q-354 0 -354 142t350 142q351 0 351 -142t-347 -142zM388 323q245 0 245 77q0 42 -60 60q-56 17 -182 17t-183 -17q-60 -18 -60 -60
q0 -77 240 -77zM1322 58q245 0 245 77q0 42 -58.5 59.5t-183.5 17.5q-126 0 -183 -17q-60 -18 -60 -60q0 -77 240 -77z" />
    <glyph glyph-name="ampersand" unicode="&#x26;" horiz-adv-x="1545" 
d="M1199 252h130q-29 -82 -114 -131l330 -121h-256l-173 61q-221 -76 -517 -76q-261 0 -385 39q-128 41 -128 126q0 119 346 158q-161 45 -161 117q0 123 354 123t354 -120q0 -77 -257 -136l379 -131q13 6 32 18q47 36 66 73zM604 332q260 53 260 95q0 50 -243 50t-243 -51
q0 -45 226 -94zM987 109l-440 152q-186 -31 -255 -53q-84 -26 -84 -62q0 -44 93 -62q86 -17 282 -17q269 0 404 42z" />
    <glyph glyph-name="quotesingle" unicode="'" horiz-adv-x="155" 
d="M112 701v-271h-68v271h68z" />
    <glyph glyph-name="parenleft" unicode="(" horiz-adv-x="439" 
d="M402 588q-112 -51 -163 -127.5t-51 -194.5q0 -121 50.5 -199t161.5 -124l-30 -52q-283 119 -283 377q0 244 283 372z" />
    <glyph glyph-name="parenright" unicode=")" horiz-adv-x="439" 
d="M68 641q284 -123 284 -378q0 -126 -69 -216t-214 -156l-32 53l34 16q94 50 137 123.5t43 181.5q0 121 -50.5 198t-161.5 125z" />
    <glyph glyph-name="asterisk" unicode="*" horiz-adv-x="503" 
d="M413 296l-29 -51l-104 60v-120h-58v120l-104 -60l-29 51l104 60l-104 60l29 50l104 -60v120h58v-120l104 60l29 -50l-104 -60z" />
    <glyph glyph-name="plus" unicode="+" horiz-adv-x="833" 
d="M451 596v-264h258v-68h-258v-264h-69v264h-258v68h258v264h69z" />
    <glyph glyph-name="comma" unicode="," horiz-adv-x="304" 
d="M120 -114l-73 40l117 179l73 -46z" />
    <glyph glyph-name="hyphen" unicode="-" horiz-adv-x="507" 
d="M453 200h-400v113h400v-113z" />
    <glyph glyph-name="hyphen" unicode="&#x2010;" horiz-adv-x="507" 
d="M453 200h-400v113h400v-113z" />
    <glyph glyph-name="period" unicode="." horiz-adv-x="344" 
d="M171 -17q-51 0 -81 17.5t-30 42.5t31.5 43.5t82.5 18.5q50 0 80 -17.5t30 -42.5q0 -26 -30.5 -44t-82.5 -18z" />
    <glyph glyph-name="slash" unicode="/" horiz-adv-x="677" 
d="M-27 0l598 533h132l-606 -533h-124z" />
    <glyph glyph-name="zero" unicode="0" horiz-adv-x="1639" 
d="M826 -20q-398 0 -590 68q-196 69 -196 215q0 145 195 215q191 69 584 69q394 0 585 -69q195 -70 195 -215q0 -283 -773 -283zM813 72q671 0 671 191q0 104 -166 148q-154 41 -498 41t-499 -41q-166 -44 -166 -148q0 -191 658 -191z" />
    <glyph glyph-name="one" unicode="1" horiz-adv-x="286" 
d="M226 0h-113v376h-86v78q62 5 108 73h91v-527z" />
    <glyph glyph-name="two" unicode="2" horiz-adv-x="1441" 
d="M1374 0h-1334v130q40 59 180 101q147 45 381 63q112 9 364 18q181 7 253 21q68 14 68 44q0 35 -135 54q-141 21 -402 21q-334 0 -697 -58v91q297 63 672 63q356 0 510 -35q167 -38 167 -132q0 -84 -104 -122q-97 -36 -317 -43l-215 -7q-447 -15 -617 -104v-5h1226v-100z
" />
    <glyph glyph-name="three" unicode="3" horiz-adv-x="1339" 
d="M40 46v96q249 -66 676 -66q470 0 470 92q0 43 -97 54q-33 4 -133 4h-797v94h793q124 0 178 12q58 14 58 47q0 73 -468 73q-354 0 -680 -68v95q340 68 674 68q307 0 440 -33q142 -35 142 -122q0 -73 -108 -117q111 -35 111 -113q0 -94 -144.5 -138t-441.5 -44
q-440 0 -673 66z" />
    <glyph glyph-name="four" unicode="4" horiz-adv-x="1554" 
d="M1325 0h-114v113h-1184v120l1070 294h228v-314h182v-100h-182v-113zM1211 213v248l-942 -248v-5z" />
    <glyph glyph-name="five" unicode="5" horiz-adv-x="1398" 
d="M1307 527v-94h-1164v-103q273 45 586 45q629 0 629 -197q0 -198 -638 -198q-396 0 -680 75v99q346 -78 704 -78q233 0 370 31q126 29 126 72q0 45 -130 74q-141 32 -382 32q-397 0 -688 -64v306h1267z" />
    <glyph glyph-name="six" unicode="6" horiz-adv-x="1371" 
d="M1305 469v-84q-231 68 -552 68q-284 0 -453 -54q-158 -51 -163 -130q231 98 619 98q575 0 575 -168q0 -81 -94 -130q-69 -36 -201 -60q-156 -29 -345 -29q-321 0 -486 68t-165 196q0 139 184 219q190 83 533 83q309 0 548 -77zM158 183q37 -49 175 -78q148 -30 380 -30
q241 0 382 35q129 32 129 81q0 81 -469 81q-371 0 -597 -89z" />
    <glyph glyph-name="seven" unicode="7" horiz-adv-x="1288" 
d="M40 527h1222v-100l-682 -427h-194l692 431l-1038 -4v100z" />
    <glyph glyph-name="eight" unicode="8" horiz-adv-x="1351" 
d="M204 294q-83 33 -83 95q0 83 137 121q132 37 414 37q301 0 433 -31q141 -34 141 -115q0 -53 -83 -101q148 -40 148 -123q0 -102 -156.5 -149.5t-477.5 -47.5q-328 0 -478 40q-159 42 -159 139t164 135zM228 393q0 -48 194 -60q52 -3 266 -3h27q247 0 319 8q105 12 105 55
q0 37 -113 52q-103 13 -346 13q-452 0 -452 -65zM646 70q555 0 555 102q0 48 -129 63q-99 12 -387 12q-278 0 -401 -18q-135 -20 -135 -68q0 -42 125 -66q130 -25 372 -25z" />
    <glyph glyph-name="nine" unicode="9" horiz-adv-x="1371" 
d="M66 57v84q239 -68 552 -68q285 0 454 55q158 51 162 130q-215 -98 -619 -98q-575 0 -575 168q0 81 93 130q67 36 200 60q157 28 347 28q320 0 487 -69q164 -68 164 -195q0 -138 -184 -218q-191 -84 -533 -84q-305 0 -548 77zM1213 343q-37 49 -175 78q-148 30 -380 30
q-240 0 -381 -35q-130 -32 -130 -80q0 -82 469 -82q369 0 597 89z" />
    <glyph glyph-name="colon" unicode=":" horiz-adv-x="347" 
d="M173 -14q-48 0 -76.5 16.5t-28.5 40.5t30 41.5t78 17.5q47 0 75.5 -16.5t28.5 -40.5q0 -25 -29 -42t-78 -17zM172 301q-48 0 -76 16.5t-28 40.5t29.5 41.5t77.5 17.5q47 0 76 -16.5t29 -40.5q0 -25 -29.5 -42t-78.5 -17z" />
    <glyph glyph-name="semicolon" unicode=";" horiz-adv-x="318" 
d="M108 -112l-69 38l112 170l69 -44zM165 301q-48 0 -77 16.5t-29 40.5t30.5 41.5t78.5 17.5q47 0 75.5 -16.5t28.5 -40.5q0 -25 -29 -42t-78 -17z" />
    <glyph glyph-name="less" unicode="&#x3c;" horiz-adv-x="833" 
d="M704 491l-473 -193l473 -192v-75l-575 236v63l575 236v-75z" />
    <glyph glyph-name="equal" unicode="=" horiz-adv-x="833" 
d="M709 429v-68h-585v68h585zM709 235v-68h-585v68h585z" />
    <glyph glyph-name="greater" unicode="&#x3e;" horiz-adv-x="833" 
d="M704 330v-63l-575 -236v75l474 192l-474 193v75z" />
    <glyph glyph-name="question" unicode="?" horiz-adv-x="1484" 
d="M53 376v94q303 77 758 77q336 0 477 -34q156 -37 156 -134q0 -48 -38.5 -87t-104.5 -54q-73 -17 -248 -17h-223q-136 0 -176 -9q-57 -13 -58 -59h-105q-1 9 -1 21q0 139 300 139h29q20 -1 31 -1h205q119 0 158 4q120 12 120 58q0 45 -128 63q-114 15 -391 15
q-440 0 -761 -76zM547 -17q-51 0 -81 17.5t-30 42.5t31.5 43.5t82.5 18.5q50 0 80 -17.5t30 -42.5q0 -26 -30.5 -44t-82.5 -18z" />
    <glyph glyph-name="at" unicode="@" horiz-adv-x="1240" 
d="M1085 37q-186 -48 -407 -48q-287 0 -463 84q-165 78 -165 194q0 103 134 178q178 100 469 100q286 0 447 -111q90 -62 90 -133q0 -80 -88 -137q-93 -60 -235 -60q-66 0 -95 49q-100 -44 -209 -44q-119 0 -196 42q-72 38 -72 92q0 65 87 113q93 52 233 52q118 0 211 -50
l20 44h113l-79 -182q-13 -30 -13 -37q0 -18 36 -18q46 0 109 39q80 50 80 95q0 74 -115 123q-123 51 -330 51q-225 0 -366 -63q-131 -59 -131 -142q0 -88 144 -149q154 -65 404 -65q140 0 270 25zM786 263l2 12q0 73 -160 73q-91 0 -144.5 -29.5t-53.5 -73.5q0 -75 149 -75
q180 0 207 93z" />
    <glyph glyph-name="A" unicode="A" horiz-adv-x="1572" 
d="M1392 0l-174 141h-866l-176 -141h-155l654 527h223l653 -527h-159zM745 458l-278 -224h636l-281 224h-77z" />
    <glyph glyph-name="B" unicode="B" horiz-adv-x="1426" 
d="M80 0v527h1047q230 0 230 -136q0 -88 -95 -124q104 -33 104 -123q0 -83 -85 -125q-38 -19 -155 -19h-1046zM191 92h937q123 0 123 64q0 65 -122 65h-938v-129zM191 312h938q117 0 117 64q0 34 -28 46.5t-88 12.5h-939v-123z" />
    <glyph glyph-name="C" unicode="C" horiz-adv-x="1428" 
d="M1388 53q-231 -78 -591 -78q-349 0 -559 74q-198 70 -198 214q0 139 184 211.5t544 72.5q418 0 620 -75v-98q-227 79 -623 79q-297 0 -455 -50q-152 -48 -152 -137q0 -79 113 -124q166 -66 500 -66q356 0 617 70v-93z" />
    <glyph glyph-name="D" unicode="D" horiz-adv-x="1470" 
d="M80 0v527h935q212 0 313.5 -62t101.5 -198q0 -105 -65 -173q-61 -63 -165 -82q-66 -12 -179 -12h-941zM193 100h827q163 0 217 28q80 41 80 137q0 93 -73 129q-66 33 -226 33h-825v-327z" />
    <glyph glyph-name="E" unicode="E" horiz-adv-x="1433" 
d="M80 0v527h1287v-94h-1176v-120h1176v-93h-1176v-127h1176v-93h-1287z" />
    <glyph glyph-name="F" unicode="F" horiz-adv-x="1473" 
d="M80 0v527h1333v-94h-1218v-166h1218v-94h-1218v-173h-115z" />
    <glyph glyph-name="G" unicode="G" horiz-adv-x="1492" 
d="M1409 470v-98q-295 81 -646 81q-290 0 -454 -57q-154 -53 -154 -142q0 -181 614 -181q388 0 549 51v66h-606v93h707v-221q-196 -82 -691 -82q-347 0 -516 66q-172 66 -172 205t184 217q189 79 542 79q335 0 643 -77z" />
    <glyph glyph-name="H" unicode="H" horiz-adv-x="1520" 
d="M80 0v527h113v-207h1134v207h113v-527h-113v220h-1134v-220h-113z" />
    <glyph glyph-name="I" unicode="I" horiz-adv-x="288" 
d="M87 0v527h114v-527h-114z" />
    <glyph glyph-name="J" unicode="J" horiz-adv-x="1236" 
d="M1163 527v-242q0 -104 -32 -158q-34 -57 -122 -92q-140 -55 -550 -55q-245 0 -432 32v99q214 -31 429 -31q291 0 416 24q102 20 139 57.5t37 121.5v244h115z" />
    <glyph glyph-name="K" unicode="K" horiz-adv-x="1592" 
d="M1565 0h-282l-625 271l-465 -130v-141h-113v527h113v-284l1014 284h349l-746 -214z" />
    <glyph glyph-name="L" unicode="L" horiz-adv-x="1309" 
d="M1283 0h-1199v527h115v-427h1084v-100z" />
    <glyph glyph-name="M" unicode="M" horiz-adv-x="1800" 
d="M80 0v527h173l646 -450l648 450h173v-527h-113v437l-627 -437h-159l-628 437v-437h-113z" />
    <glyph glyph-name="N" unicode="N" horiz-adv-x="1477" 
d="M80 0v527h196l1008 -430v430h113v-527h-167l-1037 446v-446h-113z" />
    <glyph glyph-name="O" unicode="O" horiz-adv-x="1639" 
d="M826 -20q-398 0 -590 68q-196 69 -196 215q0 145 195 215q191 69 584 69q394 0 585 -69q195 -70 195 -215q0 -283 -773 -283zM813 72q671 0 671 191q0 104 -166 148q-154 41 -498 41t-499 -41q-166 -44 -166 -148q0 -191 658 -191z" />
    <glyph glyph-name="P" unicode="P" horiz-adv-x="1491" 
d="M1173 527q278 0 278 -169q0 -171 -254 -171q-7 0 -22 1h-24h-959v-188h-112v527h1093zM1165 286q95 0 131 13q44 16 44 61q0 69 -140 69h-1008v-143h973z" />
    <glyph glyph-name="Q" unicode="Q" horiz-adv-x="1639" 
d="M1353 31l83 -64l-54 -69l-139 109q-186 -27 -428 -27q-391 0 -581 68q-194 70 -194 215t195 215q191 69 584 69q394 0 585 -69q195 -70 195 -215q0 -162 -246 -232zM1259 105q225 45 225 158q0 104 -166 148q-154 41 -498 41t-499 -41q-166 -44 -166 -148
q0 -191 663 -191q154 0 322 14l-86 68l52 69z" />
    <glyph glyph-name="R" unicode="R" horiz-adv-x="1451" 
d="M80 0v527h956q156 0 208 -25q91 -44 91 -142q0 -137 -162 -166l245 -194h-172l-222 179h-831v-179h-113zM193 272h836q98 0 144 20t46 67q0 43 -39 60q-34 14 -121 14h-866v-161z" />
    <glyph glyph-name="S" unicode="S" horiz-adv-x="1405" 
d="M60 48v96q278 -71 641 -71q285 0 400 15q130 18 130 63q0 52 -184 65q-53 4 -240 4h-229q-278 0 -381 26q-126 31 -126 123q0 97 158 139q148 39 478 39q333 0 616 -58v-92l-40 7q-280 49 -584 49q-514 0 -514 -82q0 -37 98 -49q76 -9 296 -9h220q291 0 410 -31
q136 -35 136 -128q0 -103 -158 -141q-136 -33 -478 -33q-381 0 -649 68z" />
    <glyph glyph-name="T" unicode="T" horiz-adv-x="1357" 
d="M620 0v433h-600v94h1317v-94h-604v-433h-113z" />
    <glyph glyph-name="U" unicode="U" horiz-adv-x="1447" 
d="M73 527h114v-245q0 -62 14 -95q16 -36 55 -56q71 -36 192 -48q86 -9 270 -9q178 0 255 6q119 8 191 37q55 22 75.5 59t20.5 106v245h113v-245q0 -87 -28 -142t-93 -89q-91 -48 -256 -63q-87 -8 -272 -8q-167 0 -249 6q-151 11 -237 45q-89 36 -127 94.5t-38 156.5v245z
" />
    <glyph glyph-name="V" unicode="V" horiz-adv-x="1503" 
d="M1490 527l-668 -527h-144l-665 527h182l556 -448l555 448h184z" />
    <glyph glyph-name="W" unicode="W" horiz-adv-x="2079" 
d="M2066 527l-468 -527h-154l-399 464l-414 -464h-151l-467 527h153l392 -456l402 456h173l392 -457l390 457h151z" />
    <glyph glyph-name="X" unicode="X" horiz-adv-x="1566" 
d="M1570 0h-259l-522 222l-532 -222h-265l659 276l-597 251h267l470 -197l472 197h257l-600 -252z" />
    <glyph glyph-name="Y" unicode="Y" horiz-adv-x="1537" 
d="M829 232v-232h-124v232l-692 295h253l499 -214l526 214h233z" />
    <glyph glyph-name="Z" unicode="Z" horiz-adv-x="1346" 
d="M20 0v82l1066 354h-1054v90h1294v-93l-1012 -345h1012v-88h-1306z" />
    <glyph glyph-name="bracketleft" unicode="[" horiz-adv-x="518" 
d="M100 -100v727h368v-70h-267v-587h267v-70h-368z" />
    <glyph glyph-name="backslash" unicode="\" horiz-adv-x="677" 
d="M703 0h-124l-606 533h132z" />
    <glyph glyph-name="bracketright" unicode="]" horiz-adv-x="518" 
d="M50 -100v70h267v587h-267v70h368v-727h-368z" />
    <glyph glyph-name="asciicircum" unicode="^" 
d="M545 712l249 -272h-88l-206 205l-207 -205h-88l249 272h91z" />
    <glyph glyph-name="underscore" unicode="_" horiz-adv-x="500" 
d="M500 -166v-70h-500v70h500z" />
    <glyph glyph-name="grave" unicode="`" horiz-adv-x="500" 
d="M314 593h-102l-275 145h187z" />
    <glyph glyph-name="a" unicode="a" horiz-adv-x="1572" 
d="M1392 0l-174 141h-866l-176 -141h-155l654 527h223l653 -527h-159zM745 458l-278 -224h636l-281 224h-77z" />
    <glyph glyph-name="b" unicode="b" horiz-adv-x="1426" 
d="M80 0v527h1047q230 0 230 -136q0 -88 -95 -124q104 -33 104 -123q0 -83 -85 -125q-38 -19 -155 -19h-1046zM191 93h937q64 0 93.5 14t29.5 49q0 65 -122 65h-938v-128zM191 312h938q117 0 117 64q0 34 -28 46.5t-88 12.5h-939v-123z" />
    <glyph glyph-name="c" unicode="c" horiz-adv-x="1428" 
d="M1388 53q-231 -78 -591 -78q-349 0 -559 74q-198 70 -198 214q0 139 184 211.5t544 72.5q418 0 620 -75v-98q-227 79 -623 79q-297 0 -455 -50q-152 -48 -152 -137q0 -79 113 -124q166 -66 500 -66q356 0 617 70v-93z" />
    <glyph glyph-name="d" unicode="d" horiz-adv-x="1470" 
d="M80 0v527h935q212 0 313.5 -62t101.5 -198q0 -105 -65 -173q-61 -63 -165 -82q-66 -12 -179 -12h-941zM193 100h827q163 0 217 28q80 41 80 137q0 93 -73 129q-66 33 -226 33h-825v-327z" />
    <glyph glyph-name="e" unicode="e" horiz-adv-x="1433" 
d="M80 0v527h1287v-94h-1176v-120h1176v-93h-1176v-127h1176v-93h-1287z" />
    <glyph glyph-name="f" unicode="f" horiz-adv-x="1473" 
d="M80 0v527h1333v-94h-1218v-166h1218v-94h-1218v-173h-115z" />
    <glyph glyph-name="g" unicode="g" horiz-adv-x="1492" 
d="M1409 470v-98q-295 81 -646 81q-290 0 -454 -57q-154 -53 -154 -142q0 -181 614 -181q388 0 549 51v66h-606v93h707v-221q-196 -82 -691 -82q-347 0 -516 66q-172 66 -172 205t184 217q189 79 542 79q335 0 643 -77z" />
    <glyph glyph-name="h" unicode="h" horiz-adv-x="1520" 
d="M80 0v527h113v-207h1134v207h113v-527h-113v220h-1134v-220h-113z" />
    <glyph glyph-name="i" unicode="i" horiz-adv-x="288" 
d="M87 0v527h114v-527h-114z" />
    <glyph glyph-name="j" unicode="j" horiz-adv-x="1236" 
d="M1163 527v-242q0 -104 -32 -158q-34 -57 -122 -92q-140 -55 -550 -55q-245 0 -432 32v99q214 -31 429 -31q291 0 416 24q102 20 139 57.5t37 121.5v244h115z" />
    <glyph glyph-name="k" unicode="k" horiz-adv-x="1592" 
d="M1565 0h-282l-625 271l-465 -130v-141h-113v527h113v-284l1014 284h349l-746 -214z" />
    <glyph glyph-name="l" unicode="l" horiz-adv-x="1309" 
d="M1283 0h-1199v527h115v-427h1084v-100z" />
    <glyph glyph-name="m" unicode="m" horiz-adv-x="1800" 
d="M80 0v527h173l646 -450l648 450h173v-527h-113v437l-627 -437h-159l-628 437v-437h-113z" />
    <glyph glyph-name="n" unicode="n" horiz-adv-x="1477" 
d="M80 0v527h196l1008 -430v430h113v-527h-167l-1037 446v-446h-113z" />
    <glyph glyph-name="o" unicode="o" horiz-adv-x="1639" 
d="M826 -20q-398 0 -590 68q-196 69 -196 215q0 145 195 215q191 69 584 69q394 0 585 -69q195 -70 195 -215q0 -283 -773 -283zM813 72q671 0 671 191q0 104 -166 148q-154 41 -498 41t-499 -41q-166 -44 -166 -148q0 -191 658 -191z" />
    <glyph glyph-name="p" unicode="p" horiz-adv-x="1491" 
d="M1173 527q278 0 278 -169q0 -171 -254 -171q-7 0 -22 1h-24h-959v-188h-112v527h1093zM1165 286q95 0 131 13q44 16 44 61q0 69 -140 69h-1008v-143h973z" />
    <glyph glyph-name="q" unicode="q" horiz-adv-x="1639" 
d="M1353 31l83 -64l-54 -69l-139 109q-186 -27 -428 -27q-391 0 -581 68q-194 70 -194 215t195 215q191 69 584 69q394 0 585 -69q195 -70 195 -215q0 -162 -246 -232zM1259 105q225 45 225 158q0 104 -166 148q-154 41 -498 41t-499 -41q-166 -44 -166 -148
q0 -191 663 -191q154 0 322 14l-86 68l52 69z" />
    <glyph glyph-name="r" unicode="r" horiz-adv-x="1451" 
d="M80 0v527h956q156 0 208 -25q91 -44 91 -142q0 -137 -162 -166l245 -194h-172l-222 179h-831v-179h-113zM193 272h836q98 0 144 20t46 67q0 43 -39 60q-34 14 -121 14h-866v-161z" />
    <glyph glyph-name="s" unicode="s" horiz-adv-x="1405" 
d="M60 48v96q278 -71 641 -71q285 0 400 15q130 18 130 63q0 52 -184 65q-53 4 -240 4h-229q-278 0 -381 26q-126 31 -126 123q0 97 158 139q148 39 478 39q333 0 616 -58v-92l-40 7q-280 49 -584 49q-514 0 -514 -82q0 -37 98 -49q76 -9 296 -9h220q291 0 410 -31
q136 -35 136 -128q0 -103 -158 -141q-136 -33 -478 -33q-381 0 -649 68z" />
    <glyph glyph-name="t" unicode="t" horiz-adv-x="1357" 
d="M620 0v433h-600v94h1317v-94h-604v-433h-113z" />
    <glyph glyph-name="u" unicode="u" horiz-adv-x="1447" 
d="M73 527h114v-245q0 -62 14 -95q16 -36 55 -56q71 -36 192 -48q86 -9 270 -9q178 0 255 6q119 8 191 37q55 22 75.5 59t20.5 106v245h113v-245q0 -87 -28 -142t-93 -89q-91 -48 -256 -63q-87 -8 -272 -8q-167 0 -249 6q-151 11 -237 45q-89 36 -127 94.5t-38 156.5v245z
" />
    <glyph glyph-name="v" unicode="v" horiz-adv-x="1503" 
d="M1490 527l-668 -527h-144l-665 527h182l556 -448l555 448h184z" />
    <glyph glyph-name="w" unicode="w" horiz-adv-x="2079" 
d="M2066 527l-468 -527h-154l-399 464l-414 -464h-151l-467 527h153l392 -456l402 456h173l392 -457l390 457h151z" />
    <glyph glyph-name="x" unicode="x" horiz-adv-x="1566" 
d="M1570 0h-259l-522 222l-532 -222h-265l659 276l-597 251h267l470 -197l472 197h257l-600 -252z" />
    <glyph glyph-name="y" unicode="y" horiz-adv-x="1537" 
d="M829 232v-232h-124v232l-692 295h253l499 -214l526 214h233z" />
    <glyph glyph-name="z" unicode="z" horiz-adv-x="1346" 
d="M20 0v82l1066 354h-1054v90h1294v-93l-1012 -345h1012v-88h-1306z" />
    <glyph glyph-name="braceleft" unicode="{" horiz-adv-x="588" 
d="M416 -100q-139 0 -200 27q-65 29 -65 96v150q0 33 -24.5 47t-86.5 22v50q63 8 87 21.5t24 47.5v153q0 60 64.5 86.5t200.5 26.5h132v-62h-121q-84 0 -107 -5q-63 -13 -63 -65v-137q0 -70 -93 -90q93 -19 93 -90v-143q0 -45 37 -61q33 -14 124 -14h130v-60h-132z" />
    <glyph glyph-name="bar" unicode="|" horiz-adv-x="252" 
d="M87 -100v727h78v-727h-78z" />
    <glyph glyph-name="braceright" unicode="}" horiz-adv-x="588" 
d="M437 166v-153q0 -60 -64.5 -86.5t-200.5 -26.5h-132v62h121q84 0 107 5q63 13 63 65v137q0 68 93 90q-93 21 -93 90v143q0 45 -37 61q-33 14 -124 14h-130v60h132q139 0 200 -27q65 -29 65 -96v-150q0 -33 26 -48q23 -13 85 -21v-50q-63 -8 -85 -21q-26 -14 -26 -48z" />
    <glyph glyph-name="asciitilde" unicode="~" horiz-adv-x="833" 
d="M747 300q-99 -69 -190 -69q-42 0 -141 34q-93 32 -141 32q-79 0 -188 -77v76q103 70 189 70q55 0 147 -33t135 -33q82 0 189 76v-76z" />
    <glyph glyph-name="Adieresis" unicode="&#xc4;" horiz-adv-x="1572" 
d="M1392 0l-174 141h-866l-176 -141h-155l654 527h223l653 -527h-159zM745 458l-278 -224h636l-281 224h-77zM599 715h115v-124h-115v124zM855 715h114v-124h-114v124z" />
    <glyph glyph-name="Aring" unicode="&#xc5;" horiz-adv-x="1572" 
d="M911 680q0 -47 -37 -78t-96 -31q-58 0 -93.5 30.5t-35.5 77.5q0 49 36 80.5t93 31.5q58 0 95.5 -32.5t37.5 -78.5zM840 682q0 21 -16.5 35t-43.5 14q-29 0 -46 -14t-17 -36q0 -51 61 -51q27 0 44.5 15t17.5 37zM1392 0l-174 141h-866l-176 -141h-155l654 527h223
l653 -527h-159zM745 458l-278 -224h636l-281 224h-77z" />
    <glyph glyph-name="Ccedilla" unicode="&#xc7;" horiz-adv-x="1428" 
d="M1388 53q-229 -78 -590 -78h-19l-52 -41q40 7 59 7q194 0 194 -74q0 -86 -232 -86q-116 0 -236 23l25 34q98 -17 195 -17q125 0 125 43q0 41 -126 41q-38 0 -83 -4l-34 28l68 49h-12q-163 0 -339 43q-115 28 -175 65q-116 72 -116 177q0 140 183 218q189 79 545 79
q384 0 620 -88v-98q-251 84 -623 84q-296 0 -455 -52q-152 -51 -152 -140q0 -79 113 -124q166 -66 501 -66q350 0 616 70v-93z" />
    <glyph glyph-name="Eacute" unicode="&#xc9;" horiz-adv-x="1433" 
d="M80 0v527h1287v-94h-1176v-120h1176v-93h-1176v-127h1176v-93h-1287zM656 593l190 145h187l-275 -145h-102z" />
    <glyph glyph-name="Ntilde" unicode="&#xd1;" horiz-adv-x="1477" 
d="M80 0v527h196l1008 -430v430h113v-527h-167l-1037 446v-446h-113zM1090 691q-53 -111 -188 -111q-15 0 -40 3l-42 5l-28 4l-124 20q-62 10 -81 10q-48 0 -69 -30h-136q47 115 185 115q36 0 121 -14l145 -24q36 -6 56 -6q34 0 59 28h142z" />
    <glyph glyph-name="Odieresis" unicode="&#xd6;" horiz-adv-x="1639" 
d="M826 -20q-398 0 -590 68q-196 69 -196 215q0 145 195 215q191 69 584 69q394 0 585 -69q195 -70 195 -215q0 -283 -773 -283zM813 72q671 0 671 191q0 104 -166 148q-154 41 -498 41t-499 -41q-166 -44 -166 -148q0 -191 658 -191zM633 715h115v-124h-115v124zM889 715
h114v-124h-114v124z" />
    <glyph glyph-name="Udieresis" unicode="&#xdc;" horiz-adv-x="1447" 
d="M73 527h114v-245q0 -62 14 -95q16 -36 55 -56q71 -36 192 -48q86 -9 270 -9q178 0 255 6q119 8 191 37q55 22 75.5 59t20.5 106v245h113v-245q0 -87 -28 -142t-93 -89q-91 -48 -256 -63q-87 -8 -272 -8q-167 0 -249 6q-151 11 -237 45q-89 36 -127 94.5t-38 156.5v245z
M537 715h115v-124h-115v124zM793 715h114v-124h-114v124z" />
    <glyph glyph-name="aacute" unicode="&#xe1;" horiz-adv-x="1572" 
d="M1392 0l-174 141h-866l-176 -141h-155l654 527h223l653 -527h-159zM745 458l-278 -224h636l-281 224h-77zM725 593l190 145h187l-275 -145h-102z" />
    <glyph glyph-name="agrave" unicode="&#xe0;" horiz-adv-x="1572" 
d="M1392 0l-174 141h-866l-176 -141h-155l654 527h223l653 -527h-159zM745 458l-278 -224h636l-281 224h-77zM850 593h-102l-275 145h187z" />
    <glyph glyph-name="acircumflex" unicode="&#xe2;" horiz-adv-x="1572" 
d="M1392 0l-174 141h-866l-176 -141h-155l654 527h223l653 -527h-159zM745 458l-278 -224h636l-281 224h-77zM465 593l287 119h65l288 -119h-188l-134 62l-134 -62h-184z" />
    <glyph glyph-name="adieresis" unicode="&#xe4;" horiz-adv-x="1572" 
d="M1392 0l-174 141h-866l-176 -141h-155l654 527h223l653 -527h-159zM745 458l-278 -224h636l-281 224h-77zM599 715h115v-124h-115v124zM855 715h114v-124h-114v124z" />
    <glyph glyph-name="atilde" unicode="&#xe3;" horiz-adv-x="1572" 
d="M1392 0l-174 141h-866l-176 -141h-155l654 527h223l653 -527h-159zM745 458l-278 -224h636l-281 224h-77zM1137 691q-53 -111 -188 -111q-15 0 -40 3l-42 5l-28 4l-124 20q-62 10 -81 10q-48 0 -69 -30h-136q47 115 185 115q36 0 121 -14l145 -24q36 -6 56 -6q34 0 59 28
h142z" />
    <glyph glyph-name="aring" unicode="&#xe5;" horiz-adv-x="1572" 
d="M1392 0l-174 141h-866l-176 -141h-155l654 527h223l653 -527h-159zM745 458l-278 -224h636l-281 224h-77zM653 701q0 49 36 80.5t93 31.5q58 0 95.5 -32.5t37.5 -78.5q0 -47 -37 -78t-96 -31q-58 0 -93.5 30.5t-35.5 77.5zM721 703q0 -51 61 -51q27 0 44.5 15t17.5 37
q0 21 -16.5 35t-43.5 14q-29 0 -46 -14t-17 -36z" />
    <glyph glyph-name="ccedilla" unicode="&#xe7;" horiz-adv-x="1428" 
d="M1388 53q-231 -78 -591 -78q-349 0 -559 74q-198 70 -198 214q0 139 184 211.5t544 72.5q418 0 620 -75v-98q-227 79 -623 79q-297 0 -455 -50q-152 -48 -152 -137q0 -79 113 -124q166 -66 500 -66q356 0 617 70v-93zM783 0l-70 -66q39 6 86 6q79 0 123 -20.5t44 -52.5
q0 -37 -59 -61q-63 -25 -173 -25q-116 0 -236 23l25 34q103 -17 187 -17q133 0 133 43q0 18 -34 30t-93 12q-20 0 -82 -5l-34 28l86 71h97z" />
    <glyph glyph-name="eacute" unicode="&#xe9;" horiz-adv-x="1433" 
d="M80 0v527h1287v-94h-1176v-120h1176v-93h-1176v-127h1176v-93h-1287zM656 593l190 145h187l-275 -145h-102z" />
    <glyph glyph-name="egrave" unicode="&#xe8;" horiz-adv-x="1433" 
d="M80 0v527h1287v-94h-1176v-120h1176v-93h-1176v-127h1176v-93h-1287zM781 593h-102l-275 145h187z" />
    <glyph glyph-name="ecircumflex" unicode="&#xea;" horiz-adv-x="1433" 
d="M80 0v527h1287v-94h-1176v-120h1176v-93h-1176v-127h1176v-93h-1287zM396 593l287 119h65l288 -119h-188l-134 62l-134 -62h-184z" />
    <glyph glyph-name="edieresis" unicode="&#xeb;" horiz-adv-x="1433" 
d="M80 0v527h1287v-94h-1176v-120h1176v-93h-1176v-127h1176v-93h-1287zM530 715h115v-124h-115v124zM786 715h114v-124h-114v124z" />
    <glyph glyph-name="iacute" unicode="&#xed;" horiz-adv-x="288" 
d="M87 0v527h114v-527h-114zM83 593l190 145h187l-275 -145h-102z" />
    <glyph glyph-name="igrave" unicode="&#xec;" horiz-adv-x="288" 
d="M87 0v527h114v-527h-114zM208 593h-102l-275 145h187z" />
    <glyph glyph-name="icircumflex" unicode="&#xee;" horiz-adv-x="288" 
d="M87 0v527h114v-527h-114zM-177 593l287 119h65l288 -119h-188l-134 62l-134 -62h-184z" />
    <glyph glyph-name="idieresis" unicode="&#xef;" horiz-adv-x="288" 
d="M87 0v527h114v-527h-114zM-43 715h115v-124h-115v124zM213 715h114v-124h-114v124z" />
    <glyph glyph-name="ntilde" unicode="&#xf1;" horiz-adv-x="1477" 
d="M80 0v527h196l1008 -430v430h113v-527h-167l-1037 446v-446h-113zM1090 691q-53 -111 -188 -111q-15 0 -40 3l-42 5l-28 4l-124 20q-62 10 -81 10q-48 0 -69 -30h-136q47 115 185 115q36 0 121 -14l145 -24q36 -6 56 -6q34 0 59 28h142z" />
    <glyph glyph-name="oacute" unicode="&#xf3;" horiz-adv-x="1639" 
d="M826 -20q-398 0 -590 68q-196 69 -196 215q0 145 195 215q191 69 584 69q394 0 585 -69q195 -70 195 -215q0 -283 -773 -283zM813 72q671 0 671 191q0 104 -166 148q-154 41 -498 41t-499 -41q-166 -44 -166 -148q0 -191 658 -191zM759 593l190 145h187l-275 -145h-102z
" />
    <glyph glyph-name="ograve" unicode="&#xf2;" horiz-adv-x="1639" 
d="M826 -20q-398 0 -590 68q-196 69 -196 215q0 145 195 215q191 69 584 69q394 0 585 -69q195 -70 195 -215q0 -283 -773 -283zM813 72q671 0 671 191q0 104 -166 148q-154 41 -498 41t-499 -41q-166 -44 -166 -148q0 -191 658 -191zM884 593h-102l-275 145h187z" />
    <glyph glyph-name="ocircumflex" unicode="&#xf4;" horiz-adv-x="1639" 
d="M826 -20q-398 0 -590 68q-196 69 -196 215q0 145 195 215q191 69 584 69q394 0 585 -69q195 -70 195 -215q0 -283 -773 -283zM813 72q671 0 671 191q0 104 -166 148q-154 41 -498 41t-499 -41q-166 -44 -166 -148q0 -191 658 -191zM499 593l287 119h65l288 -119h-188
l-134 62l-134 -62h-184z" />
    <glyph glyph-name="odieresis" unicode="&#xf6;" horiz-adv-x="1639" 
d="M826 -20q-398 0 -590 68q-196 69 -196 215q0 145 195 215q191 69 584 69q394 0 585 -69q195 -70 195 -215q0 -283 -773 -283zM813 72q671 0 671 191q0 104 -166 148q-154 41 -498 41t-499 -41q-166 -44 -166 -148q0 -191 658 -191zM633 715h115v-124h-115v124zM889 715
h114v-124h-114v124z" />
    <glyph glyph-name="otilde" unicode="&#xf5;" horiz-adv-x="1639" 
d="M826 -20q-398 0 -590 68q-196 69 -196 215q0 145 195 215q191 69 584 69q394 0 585 -69q195 -70 195 -215q0 -283 -773 -283zM813 72q671 0 671 191q0 104 -166 148q-154 41 -498 41t-499 -41q-166 -44 -166 -148q0 -191 658 -191zM1171 691q-53 -111 -188 -111
q-15 0 -40 3l-42 5l-28 4l-124 20q-62 10 -81 10q-48 0 -69 -30h-136q47 115 185 115q36 0 121 -14l145 -24q36 -6 56 -6q34 0 59 28h142z" />
    <glyph glyph-name="uacute" unicode="&#xfa;" horiz-adv-x="1447" 
d="M73 527h114v-245q0 -62 14 -95q16 -36 55 -56q71 -36 192 -48q86 -9 270 -9q178 0 255 6q119 8 191 37q55 22 75.5 59t20.5 106v245h113v-245q0 -87 -28 -142t-93 -89q-91 -48 -256 -63q-87 -8 -272 -8q-167 0 -249 6q-151 11 -237 45q-89 36 -127 94.5t-38 156.5v245z
M663 593l190 145h187l-275 -145h-102z" />
    <glyph glyph-name="ugrave" unicode="&#xf9;" horiz-adv-x="1447" 
d="M73 527h114v-245q0 -62 14 -95q16 -36 55 -56q71 -36 192 -48q86 -9 270 -9q178 0 255 6q119 8 191 37q55 22 75.5 59t20.5 106v245h113v-245q0 -87 -28 -142t-93 -89q-91 -48 -256 -63q-87 -8 -272 -8q-167 0 -249 6q-151 11 -237 45q-89 36 -127 94.5t-38 156.5v245z
M788 593h-102l-275 145h187z" />
    <glyph glyph-name="ucircumflex" unicode="&#xfb;" horiz-adv-x="1447" 
d="M73 527h114v-245q0 -62 14 -95q16 -36 55 -56q71 -36 192 -48q86 -9 270 -9q178 0 255 6q119 8 191 37q55 22 75.5 59t20.5 106v245h113v-245q0 -87 -28 -142t-93 -89q-91 -48 -256 -63q-87 -8 -272 -8q-167 0 -249 6q-151 11 -237 45q-89 36 -127 94.5t-38 156.5v245z
M403 593l287 119h65l288 -119h-188l-134 62l-134 -62h-184z" />
    <glyph glyph-name="udieresis" unicode="&#xfc;" horiz-adv-x="1447" 
d="M73 527h114v-245q0 -62 14 -95q16 -36 55 -56q71 -36 192 -48q86 -9 270 -9q178 0 255 6q119 8 191 37q55 22 75.5 59t20.5 106v245h113v-245q0 -87 -28 -142t-93 -89q-91 -48 -256 -63q-87 -8 -272 -8q-167 0 -249 6q-151 11 -237 45q-89 36 -127 94.5t-38 156.5v245z
M537 715h115v-124h-115v124zM793 715h114v-124h-114v124z" />
    <glyph glyph-name="dagger" unicode="&#x2020;" horiz-adv-x="1310" 
d="M601 -143v399h-463v100h463v171h111v-171h460v-100h-460v-399h-111z" />
    <glyph glyph-name="degree" unicode="&#xb0;" horiz-adv-x="781" 
d="M394 259q-181 0 -266 33q-88 35 -88 108q0 143 350 143q351 0 351 -143q0 -141 -347 -141zM388 324q245 0 245 76q0 42 -59 60t-183 18q-125 0 -184 -18t-59 -60q0 -76 240 -76z" />
    <glyph glyph-name="cent" unicode="&#xa2;" horiz-adv-x="1240" 
d="M1200 83q-166 -52 -351 -61l-148 -7v-165h-86v167q-575 25 -575 247q0 113 145 182q152 72 420 72h10v148h85v-148h20q273 0 479 -75v-84q-221 65 -534 65q-254 0 -384 -42t-130 -119q0 -73 131 -114q135 -42 387 -42q303 0 531 56v-80z" />
    <glyph glyph-name="sterling" unicode="&#xa3;" horiz-adv-x="1308" 
d="M840 302v-80h-423q24 -22 24 -51q0 -26 -25 -47q-21 -17 -75 -41l58 4l56 1l58 3h37q112 0 196 -7l84 -7l84 -5l63 2q91 0 237 33l14 -83q-139 -39 -306 -39q-64 0 -225 13.5t-257 13.5q-171 0 -284 -36l-22 78q85 24 132 57q44 31 44 62q0 27 -31 49h-199v80h112
q-38 43 -38 71q0 75 136 124q145 51 394 51q395 0 504 -97l-79 -71q-91 78 -431 78q-396 0 -396 -88q0 -20 66 -68h492z" />
    <glyph glyph-name="section" unicode="&#xa7;" horiz-adv-x="1238" 
d="M109 -44l52 72q75 -53 201 -75q110 -19 296 -19q360 0 360 61q0 42 -247 62l-402 33q-155 13 -218 36q-71 27 -71 81q0 62 138 107q-63 16 -89 34q-29 20 -29 51q0 149 498 149q194 0 299 -15q125 -19 190 -66l-60 -68q-106 69 -423 69q-179 0 -292 -20
q-100 -17 -100 -39q0 -21 71 -31q31 -4 213 -19l334 -27q171 -14 245 -41q83 -29 83 -87q0 -29 -31.5 -51.5t-102.5 -48.5q113 -38 113 -102q0 -154 -473 -154q-200 0 -325 22q-142 25 -230 86zM914 130q110 31 110 66q0 34 -97 42l-123 10l-476 40q-123 -42 -123 -68
q0 -23 56 -33q34 -6 167 -17z" />
    <glyph glyph-name="bullet" unicode="&#x2022;" horiz-adv-x="392" 
d="M192 205q-63 0 -101 22t-38 53q0 32 39.5 55t102.5 23t100.5 -21.5t37.5 -53.5q0 -33 -37 -55q-40 -23 -104 -23z" />
    <glyph glyph-name="paragraph" unicode="&#xb6;" horiz-adv-x="1180" 
d="M1055 443v-453h-94v453h-152v-453h-89v204h-397h-25q-17 -1 -25 -1q-246 0 -246 167q0 86 66.5 126.5t206.5 40.5h833v-84h-78zM720 443h-424q-93 0 -130 -15q-43 -18 -43 -66q0 -51 47 -69q39 -16 139 -16h411v166z" />
    <glyph glyph-name="germandbls" unicode="&#xdf;" horiz-adv-x="2810" 
d="M60 48v96q278 -71 641 -71q285 0 400 15q130 18 130 63q0 52 -184 65q-53 4 -240 4h-229q-278 0 -381 26q-126 31 -126 123q0 97 158 139q148 39 478 39q333 0 616 -58v-92l-40 7q-280 49 -584 49q-514 0 -514 -82q0 -37 98 -49q76 -9 296 -9h220q291 0 410 -31
q136 -35 136 -128q0 -103 -158 -141q-136 -33 -478 -33q-381 0 -649 68zM1465 48v96q276 -71 641 -71q285 0 400 15q130 18 130 63q0 52 -184 65q-53 4 -240 4h-229q-277 0 -381 26q-126 32 -126 123q0 97 158 139q148 39 478 39q326 0 616 -58v-92l-40 7q-280 49 -584 49
q-514 0 -514 -82q0 -37 98 -49q76 -9 296 -9h220q291 0 411 -31q135 -35 135 -128q0 -103 -158 -141q-136 -33 -478 -33q-381 0 -649 68z" />
    <glyph glyph-name="registered" unicode="&#xae;" horiz-adv-x="379" 
d="M189 535q66 0 110.5 -44.5t44.5 -109.5q0 -63 -46 -108.5t-112 -45.5q-63 0 -107 45.5t-44 111.5q0 61 45.5 106t108.5 45zM189 511q-55 0 -92.5 -37.5t-37.5 -92.5t38 -93.5t92 -38.5q56 0 94 38.5t38 93.5q0 56 -37.5 93t-94.5 37zM129 464h59q71 0 71 -49
q0 -31 -36 -44l37 -74h-40l-32 69h-24v-69h-35v167zM164 437v-48h24q33 0 33 24t-35 24h-22z" />
    <glyph glyph-name="copyright" unicode="&#xa9;" horiz-adv-x="724" 
d="M364 -14q-118 0 -198 81t-80 197q0 117 80.5 197.5t195.5 80.5t195.5 -80.5t80.5 -197.5q0 -116 -80 -197t-194 -81zM363 504q-100 0 -169 -70t-69 -170q0 -101 68.5 -170.5t168.5 -69.5q98 0 168 70t70 170q0 101 -69.5 170.5t-167.5 69.5zM503 321h-61q-24 54 -75 54
q-43 0 -72 -30.5t-29 -78.5t28.5 -78.5t72.5 -30.5q52 0 75 54h61q-27 -114 -140 -114q-67 0 -112 47.5t-45 121.5t46 121.5t115 47.5q109 0 136 -114z" />
    <glyph glyph-name="trademark" unicode="&#x2122;" horiz-adv-x="409" 
d="M186 527h58l39 -100l36 100h57v-166h-39v125l-46 -125h-18l-47 125v-125h-40v166zM10 527h143v-33h-51v-133h-41v133h-51v33z" />
    <glyph glyph-name="acute" unicode="&#xb4;" horiz-adv-x="500" 
d="M189 593l190 145h187l-275 -145h-102z" />
    <glyph glyph-name="dieresis" unicode="&#xa8;" horiz-adv-x="500" 
d="M63 715h115v-124h-115v124zM319 715h114v-124h-114v124z" />
    <glyph glyph-name="AE" unicode="&#xc6;" horiz-adv-x="2381" 
d="M1111 0l-1 137h-681l-213 -137h-203l838 527h1464v-94h-1094v-120h1094v-93h-1094v-127h1094v-93h-1204zM578 238h533v197h-201z" />
    <glyph glyph-name="Oslash" unicode="&#xd8;" horiz-adv-x="1638" 
d="M269 35l-221 -85l-38 72l153 58q-124 70 -124 184q0 283 779 283q313 0 473 -37l209 80l55 -65l-136 -52q86 -33 132.5 -88t46.5 -121q0 -146 -192.5 -215t-585.5 -69q-371 0 -551 55zM291 129l824 315q-142 9 -283 9q-352 0 -509 -41q-169 -45 -169 -150q0 -89 137 -133
zM1283 421l-851 -325q93 -25 405 -25q646 0 646 193q0 56 -48 93t-152 64z" />
    <glyph glyph-name="plusminus" unicode="&#xb1;" horiz-adv-x="833" 
d="M451 582v-166h258v-68h-258v-166h-69v166h-258v68h258v166h69zM709 83v-69h-585v69h585z" />
    <glyph glyph-name="yen" unicode="&#xa5;" horiz-adv-x="1472" 
d="M1452 527l-325 -140h260v-80h-427l-164 -69h437v-80h-441v-158h-115v158h-422v80h416l-162 69h-410v80h241l-324 140h196l525 -221l530 221h185z" />
    <glyph glyph-name="mu" unicode="&#xb5;" horiz-adv-x="562" 
d="M188 523l-63 -293q-7 -33 -7 -65q0 -101 98 -101q66 0 104 48q36 45 58 149l56 262h87l-76 -357q-11 -52 -11 -65q0 -33 35 -33q10 0 16 1l-15 -70q-24 -5 -53 -5q-56 0 -73 63q-43 -64 -132 -64q-77 0 -125 57l-54 -259h-88l155 732h88z" />
    <glyph glyph-name="mu" unicode="&#x3bc;" horiz-adv-x="562" 
d="M188 523l-63 -293q-7 -33 -7 -65q0 -101 98 -101q66 0 104 48q36 45 58 149l56 262h87l-76 -357q-11 -52 -11 -65q0 -33 35 -33q10 0 16 1l-15 -70q-24 -5 -53 -5q-56 0 -73 63q-43 -64 -132 -64q-77 0 -125 57l-54 -259h-88l155 732h88z" />
    <glyph glyph-name="ordfeminine" unicode="&#xaa;" horiz-adv-x="954" 
d="M823 210l-101 78h-491l-101 -78h-136l414 316h139l413 -316h-137zM476 479l-149 -116h299z" />
    <glyph glyph-name="ordmasculine" unicode="&#xba;" horiz-adv-x="1015" 
d="M975 361q0 -169 -463 -169q-239 0 -354 40q-118 41 -118 129q0 171 467 171q468 0 468 -171zM888 362q0 52 -95 75q-90 22 -285 22t-286 -22q-95 -23 -95 -75q0 -99 377 -99q384 0 384 99z" />
    <glyph glyph-name="ae" unicode="&#xe6;" horiz-adv-x="2381" 
d="M1111 0l-1 137h-681l-213 -137h-203l838 527h1464v-94h-1094v-120h1094v-93h-1094v-127h1094v-93h-1204zM578 238h533v197h-201z" />
    <glyph glyph-name="oslash" unicode="&#xf8;" horiz-adv-x="1638" 
d="M269 35l-221 -85l-38 72l153 58q-124 70 -124 184q0 283 779 283q313 0 473 -37l209 80l55 -65l-136 -52q86 -33 132.5 -88t46.5 -121q0 -146 -192.5 -215t-585.5 -69q-371 0 -551 55zM291 129l824 315q-142 9 -283 9q-352 0 -509 -41q-169 -45 -169 -150q0 -89 137 -133
zM1283 421l-851 -325q93 -25 405 -25q646 0 646 193q0 56 -48 93t-152 64z" />
    <glyph glyph-name="questiondown" unicode="&#xbf;" horiz-adv-x="1498" 
d="M1431 153v-94q-292 -76 -758 -76q-337 0 -477 33q-156 38 -156 134q0 48 38.5 86.5t105.5 54.5q73 17 248 17h209q145 0 187 9q59 13 60 59h106q0 -6 1 -13v-8q0 -95 -134 -125q-58 -13 -226 -13h-206q-127 0 -162 -4q-115 -12 -115 -58t129 -63q112 -15 390 -15
q439 0 760 76zM937 547q50 0 80.5 -17.5t30.5 -42.5t-31.5 -43.5t-82.5 -18.5q-50 0 -80 17t-30 42q0 27 31 45t82 18z" />
    <glyph glyph-name="exclamdown" unicode="&#xa1;" horiz-adv-x="384" 
d="M193 527q50 0 80.5 -17.5t30.5 -42.5t-31.5 -43.5t-82.5 -18.5t-80.5 16.5t-29.5 42.5q0 27 30.5 45t82.5 18zM151 356h87l27 -373h-142z" />
    <glyph glyph-name="logicalnot" unicode="&#xac;" horiz-adv-x="833" 
d="M709 420v-245h-67v177h-518v68h585z" />
    <glyph glyph-name="florin" unicode="&#x192;" horiz-adv-x="970" 
d="M781 331l-37 -81h-220l-110 -232q-40 -85 -116 -116q-67 -29 -204 -29q-48 0 -71 2l-23 2l37 84q54 -2 71 -2q93 0 138 25.5t81 103.5l75 162h-198l37 81h198l37 76q37 75 104.5 105t197.5 30q20 0 104 -3l28 -1l-38 -80l-23 1q-46 2 -68 2q-88 0 -135 -20
q-50 -22 -72 -74l-15 -36h222z" />
    <glyph glyph-name="guillemotleft" unicode="&#xab;" horiz-adv-x="1238" 
d="M1136 138l-468 96v66l468 91v-57l-339 -68l339 -62v-66zM548 138l-468 96v66l468 91v-57l-339 -68l339 -62v-66z" />
    <glyph glyph-name="guillemotright" unicode="&#xbb;" horiz-adv-x="1238" 
d="M80 391l468 -96v-66l-468 -91v57l339 68l-339 62v66zM668 391l468 -96v-66l-468 -91v57l339 68l-339 62v66z" />
    <glyph glyph-name="ellipsis" unicode="&#x2026;" horiz-adv-x="1032" 
d="M171 -17q-51 0 -81 17.5t-30 42.5t31.5 43.5t82.5 18.5q50 0 80 -17.5t30 -42.5q0 -26 -30.5 -44t-82.5 -18zM515 -17q-51 0 -81 17.5t-30 42.5t31.5 43.5t82.5 18.5q50 0 80 -17.5t30 -42.5q0 -26 -30.5 -44t-82.5 -18zM859 -17q-51 0 -81 17.5t-30 42.5t31.5 43.5
t82.5 18.5q50 0 80 -17.5t30 -42.5q0 -26 -30.5 -44t-82.5 -18z" />
    <glyph glyph-name="nonbreakingspace" unicode="&#xa0;" 
 />
    <glyph glyph-name="Agrave" unicode="&#xc0;" horiz-adv-x="1572" 
d="M1392 0l-174 141h-866l-176 -141h-155l654 527h223l653 -527h-159zM745 458l-278 -224h636l-281 224h-77zM850 593h-102l-275 145h187z" />
    <glyph glyph-name="Atilde" unicode="&#xc3;" horiz-adv-x="1572" 
d="M1392 0l-174 141h-866l-176 -141h-155l654 527h223l653 -527h-159zM745 458l-278 -224h636l-281 224h-77zM1137 691q-53 -111 -188 -111q-15 0 -40 3l-42 5l-28 4l-124 20q-62 10 -81 10q-48 0 -69 -30h-136q47 115 185 115q36 0 121 -14l145 -24q36 -6 56 -6q34 0 59 28
h142z" />
    <glyph glyph-name="Otilde" unicode="&#xd5;" horiz-adv-x="1639" 
d="M826 -20q-398 0 -590 68q-196 69 -196 215q0 145 195 215q191 69 584 69q394 0 585 -69q195 -70 195 -215q0 -283 -773 -283zM813 72q671 0 671 191q0 104 -166 148q-154 41 -498 41t-499 -41q-166 -44 -166 -148q0 -191 658 -191zM1171 691q-53 -111 -188 -111
q-15 0 -40 3l-42 5l-28 4l-124 20q-62 10 -81 10q-48 0 -69 -30h-136q47 115 185 115q36 0 121 -14l145 -24q36 -6 56 -6q34 0 59 28h142z" />
    <glyph glyph-name="OE" unicode="&#x152;" horiz-adv-x="2654" 
d="M1294 514v13h1290v-93h-1179v-121h1178v-93l-1178 1v-128h1183v-93h-1294v17q-217 -32 -470 -37q-397 2 -588 70q-196 70 -196 216q0 144 194 213q191 68 584 68q317 0 476 -33zM1294 419q-88 25 -225 31q-52 2 -230 2q-358 0 -513 -39q-171 -42 -171 -147
q0 -190 659 -194q354 4 480 46v301z" />
    <glyph glyph-name="oe" unicode="&#x153;" horiz-adv-x="2654" 
d="M1294 514v13h1290v-93h-1179v-121h1178v-93l-1178 1v-128h1183v-93h-1294v17q-229 -34 -470 -34q-397 0 -588 68q-196 69 -196 215q0 144 194 213q191 68 584 68q317 0 476 -33zM1294 419q-88 25 -225 31q-52 2 -230 2q-358 0 -513 -39q-171 -42 -171 -147
q0 -191 659 -191q349 0 480 43v301z" />
    <glyph glyph-name="endash" unicode="&#x2013;" horiz-adv-x="948" 
d="M-4 292h956v-69h-956v69z" />
    <glyph glyph-name="emdash" unicode="&#x2014;" horiz-adv-x="1690" 
d="M-4 292h1698v-69h-1698v69z" />
    <glyph glyph-name="quotedblleft" unicode="&#x201c;" horiz-adv-x="457" 
d="M410 424l-88 -27l-110 185l89 25zM237 399l-89 -25l-101 195l80 25z" />
    <glyph glyph-name="quotedblright" unicode="&#x201d;" horiz-adv-x="464" 
d="M121 370l-74 35l107 205l80 -34zM304 360l-81 36l113 204l81 -28z" />
    <glyph glyph-name="quoteleft" unicode="&#x2018;" horiz-adv-x="254" 
d="M137 338l-84 30l66 193l82 -22z" />
    <glyph glyph-name="quoteright" unicode="&#x2019;" horiz-adv-x="254" 
d="M137 338l-84 30l66 193l82 -22z" />
    <glyph glyph-name="divide" unicode="&#xf7;" horiz-adv-x="833" 
d="M417 540q25 0 43 -18.5t18 -43.5t-18 -43t-43 -18t-43 18t-18 43t18 43.5t43 18.5zM709 332v-68h-585v68h585zM417 179q25 0 43 -18t18 -43t-18 -43t-43 -18q-26 0 -43.5 17.5t-17.5 43.5q0 25 18 43t43 18z" />
    <glyph glyph-name="ydieresis" unicode="&#xff;" horiz-adv-x="1537" 
d="M829 232v-232h-124v232l-692 295h253l499 -214l526 214h233zM582 715h115v-124h-115v124zM838 715h114v-124h-114v124z" />
    <glyph glyph-name="Ydieresis" unicode="&#x178;" horiz-adv-x="1537" 
d="M829 232v-232h-124v232l-692 295h253l499 -214l526 214h233zM582 715h115v-124h-115v124zM838 715h114v-124h-114v124z" />
    <glyph glyph-name="currency" unicode="&#xa4;" horiz-adv-x="606" 
d="M179 595q56 42 124 42q70 0 125 -42l100 100l40 -39l-100 -101q40 -53 40 -123t-40 -123l100 -100l-40 -40l-100 100q-57 -42 -124 -42q-69 0 -125 42l-100 -100l-40 40l101 100q-41 52 -41 123q0 68 41 123l-101 101l40 39zM452 433q0 61 -43.5 104.5t-104.5 43.5
t-104.5 -43.5t-43.5 -104.5q0 -62 43.5 -105.5t104.5 -43.5t104.5 43.5t43.5 105.5z" />
    <glyph glyph-name="guilsinglleft" unicode="&#x2039;" horiz-adv-x="650" 
d="M548 138l-468 96v66l468 91v-57l-339 -68l339 -62v-66z" />
    <glyph glyph-name="guilsinglright" unicode="&#x203a;" horiz-adv-x="650" 
d="M80 391l468 -96v-66l-468 -91v57l339 68l-339 62v66z" />
    <glyph glyph-name="daggerdbl" unicode="&#x2021;" horiz-adv-x="1284" 
d="M584 278h-458v95h458v154h114v-154h460v-95h-460v-154h460v-95h-460v-166h-114v166h-458v95h458v154z" />
    <glyph glyph-name="periodcentered" unicode="&#xb7;" horiz-adv-x="255" 
d="M126 348q31 0 50.5 -19t19.5 -48t-20 -49t-49 -20q-28 0 -48 20t-20 48t20 48t47 20z" />
    <glyph glyph-name="periodcentered" unicode="&#x2219;" horiz-adv-x="255" 
d="M126 348q31 0 50.5 -19t19.5 -48t-20 -49t-49 -20q-28 0 -48 20t-20 48t20 48t47 20z" />
    <glyph glyph-name="quotesinglbase" unicode="&#x201a;" horiz-adv-x="304" 
d="M120 -114l-73 40l117 179l73 -46z" />
    <glyph glyph-name="quotedblbase" unicode="&#x201e;" horiz-adv-x="484" 
d="M120 -114l-73 40l117 179l73 -46zM300 -114l-73 40l118 179l73 -46z" />
    <glyph glyph-name="perthousand" unicode="&#x2030;" horiz-adv-x="2501" 
d="M495 0l598 533h132l-606 -533h-124zM394 259q-181 0 -266 33q-88 35 -88 108q0 143 350 143q351 0 351 -143q0 -141 -347 -141zM1328 -6q-354 0 -354 142t350 142q351 0 351 -142t-347 -142zM2114 -6q-181 0 -266 34q-88 34 -88 108q0 142 350 142q351 0 351 -142
t-347 -142zM388 323q245 0 245 77q0 42 -58.5 59.5t-183.5 17.5q-126 0 -183 -17q-60 -18 -60 -60q0 -77 240 -77zM1322 58q245 0 245 77q0 42 -58.5 59.5t-183.5 17.5q-126 0 -183 -17q-60 -18 -60 -60q0 -77 240 -77zM2108 58q245 0 245 78q0 41 -58.5 58.5t-183.5 17.5
q-126 0 -183 -17q-60 -18 -60 -60q0 -77 240 -77z" />
    <glyph glyph-name="Acircumflex" unicode="&#xc2;" horiz-adv-x="1572" 
d="M1392 0l-174 141h-866l-176 -141h-155l654 527h223l653 -527h-159zM745 458l-278 -224h636l-281 224h-77zM465 593l287 119h65l288 -119h-188l-134 62l-134 -62h-184z" />
    <glyph glyph-name="Ecircumflex" unicode="&#xca;" horiz-adv-x="1433" 
d="M80 0v527h1287v-94h-1176v-120h1176v-93h-1176v-127h1176v-93h-1287zM396 593l287 119h65l288 -119h-188l-134 62l-134 -62h-184z" />
    <glyph glyph-name="Aacute" unicode="&#xc1;" horiz-adv-x="1572" 
d="M1392 0l-174 141h-866l-176 -141h-155l654 527h223l653 -527h-159zM745 458l-278 -224h636l-281 224h-77zM725 593l190 145h187l-275 -145h-102z" />
    <glyph glyph-name="Edieresis" unicode="&#xcb;" horiz-adv-x="1433" 
d="M80 0v527h1287v-94h-1176v-120h1176v-93h-1176v-127h1176v-93h-1287zM530 715h115v-124h-115v124zM786 715h114v-124h-114v124z" />
    <glyph glyph-name="Egrave" unicode="&#xc8;" horiz-adv-x="1433" 
d="M80 0v527h1287v-94h-1176v-120h1176v-93h-1176v-127h1176v-93h-1287zM781 593h-102l-275 145h187z" />
    <glyph glyph-name="Iacute" unicode="&#xcd;" horiz-adv-x="288" 
d="M87 0v527h114v-527h-114zM83 593l190 145h187l-275 -145h-102z" />
    <glyph glyph-name="Icircumflex" unicode="&#xce;" horiz-adv-x="288" 
d="M87 0v527h114v-527h-114zM-177 593l287 119h65l288 -119h-188l-134 62l-134 -62h-184z" />
    <glyph glyph-name="Idieresis" unicode="&#xcf;" horiz-adv-x="288" 
d="M87 0v527h114v-527h-114zM-43 715h115v-124h-115v124zM213 715h114v-124h-114v124z" />
    <glyph glyph-name="Igrave" unicode="&#xcc;" horiz-adv-x="288" 
d="M87 0v527h114v-527h-114zM208 593h-102l-275 145h187z" />
    <glyph glyph-name="Oacute" unicode="&#xd3;" horiz-adv-x="1639" 
d="M826 -20q-398 0 -590 68q-196 69 -196 215q0 145 195 215q191 69 584 69q394 0 585 -69q195 -70 195 -215q0 -283 -773 -283zM813 72q671 0 671 191q0 104 -166 148q-154 41 -498 41t-499 -41q-166 -44 -166 -148q0 -191 658 -191zM759 593l190 145h187l-275 -145h-102z
" />
    <glyph glyph-name="Ocircumflex" unicode="&#xd4;" horiz-adv-x="1639" 
d="M826 -20q-398 0 -590 68q-196 69 -196 215q0 145 195 215q191 69 584 69q394 0 585 -69q195 -70 195 -215q0 -283 -773 -283zM813 72q671 0 671 191q0 104 -166 148q-154 41 -498 41t-499 -41q-166 -44 -166 -148q0 -191 658 -191zM499 593l287 119h65l288 -119h-188
l-134 62l-134 -62h-184z" />
    <glyph glyph-name="Ograve" unicode="&#xd2;" horiz-adv-x="1639" 
d="M826 -20q-398 0 -590 68q-196 69 -196 215q0 145 195 215q191 69 584 69q394 0 585 -69q195 -70 195 -215q0 -283 -773 -283zM813 72q671 0 671 191q0 104 -166 148q-154 41 -498 41t-499 -41q-166 -44 -166 -148q0 -191 658 -191zM884 593h-102l-275 145h187z" />
    <glyph glyph-name="Uacute" unicode="&#xda;" horiz-adv-x="1447" 
d="M73 527h114v-245q0 -62 14 -95q16 -36 55 -56q71 -36 192 -48q86 -9 270 -9q178 0 255 6q119 8 191 37q55 22 75.5 59t20.5 106v245h113v-245q0 -87 -28 -142t-93 -89q-91 -48 -256 -63q-87 -8 -272 -8q-167 0 -249 6q-151 11 -237 45q-89 36 -127 94.5t-38 156.5v245z
M663 593l190 145h187l-275 -145h-102z" />
    <glyph glyph-name="Ucircumflex" unicode="&#xdb;" horiz-adv-x="1447" 
d="M73 527h114v-245q0 -62 14 -95q16 -36 55 -56q71 -36 192 -48q86 -9 270 -9q178 0 255 6q119 8 191 37q55 22 75.5 59t20.5 106v245h113v-245q0 -87 -28 -142t-93 -89q-91 -48 -256 -63q-87 -8 -272 -8q-167 0 -249 6q-151 11 -237 45q-89 36 -127 94.5t-38 156.5v245z
M403 593l287 119h65l288 -119h-188l-134 62l-134 -62h-184z" />
    <glyph glyph-name="Ugrave" unicode="&#xd9;" horiz-adv-x="1447" 
d="M73 527h114v-245q0 -62 14 -95q16 -36 55 -56q71 -36 192 -48q86 -9 270 -9q178 0 255 6q119 8 191 37q55 22 75.5 59t20.5 106v245h113v-245q0 -87 -28 -142t-93 -89q-91 -48 -256 -63q-87 -8 -272 -8q-167 0 -249 6q-151 11 -237 45q-89 36 -127 94.5t-38 156.5v245z
M788 593h-102l-275 145h187z" />
    <glyph glyph-name="circumflex" unicode="&#x2c6;" horiz-adv-x="500" 
d="M-71 593l287 119h65l288 -119h-188l-134 62l-134 -62h-184z" />
    <glyph glyph-name="tilde" unicode="&#x2dc;" horiz-adv-x="500" 
d="M601 691q-53 -111 -188 -111q-15 0 -40 3l-42 5l-28 4l-124 20q-62 10 -81 10q-48 0 -69 -30h-136q47 115 185 115q36 0 121 -14l145 -24q36 -6 56 -6q34 0 59 28h142z" />
    <glyph glyph-name="macron" unicode="&#xaf;" horiz-adv-x="500" 
d="M16 688h462v-75h-462v75z" />
    <glyph glyph-name="macron" unicode="&#x2c9;" horiz-adv-x="500" 
d="M16 688h462v-75h-462v75z" />
    <glyph glyph-name="cedilla" unicode="&#xb8;" horiz-adv-x="500" 
d="M264 0l-70 -66q39 6 86 6q79 0 123 -20.5t44 -52.5q0 -37 -59 -61q-63 -25 -173 -25q-116 0 -236 23l25 34q103 -17 187 -17q133 0 133 43q0 18 -34 30t-93 12q-20 0 -82 -5l-34 28l86 71h97z" />
    <glyph glyph-name="Scaron" unicode="&#x160;" horiz-adv-x="1405" 
d="M60 48v96q278 -71 641 -71q285 0 400 15q130 18 130 63q0 52 -184 65q-53 4 -240 4h-229q-278 0 -381 26q-126 31 -126 123q0 97 158 139q148 39 478 39q333 0 616 -58v-92l-40 7q-280 49 -584 49q-514 0 -514 -82q0 -37 98 -49q76 -9 296 -9h220q291 0 410 -31
q136 -35 136 -128q0 -103 -158 -141q-136 -33 -478 -33q-381 0 -649 68zM1018 713l-287 -119h-65l-288 119h188l134 -62l134 62h184z" />
    <glyph glyph-name="scaron" unicode="&#x161;" horiz-adv-x="1405" 
d="M60 48v96q278 -71 641 -71q285 0 400 15q130 18 130 63q0 52 -184 65q-53 4 -240 4h-229q-278 0 -381 26q-126 31 -126 123q0 97 158 139q148 39 478 39q333 0 616 -58v-92l-40 7q-280 49 -584 49q-514 0 -514 -82q0 -37 98 -49q76 -9 296 -9h220q291 0 410 -31
q136 -35 136 -128q0 -103 -158 -141q-136 -33 -478 -33q-381 0 -649 68zM1018 713l-287 -119h-65l-288 119h188l134 -62l134 62h184z" />
    <glyph glyph-name="brokenbar" unicode="&#xa6;" horiz-adv-x="500" 
d="M287 699v-370h-73v370h73zM287 199v-370h-73v370h73z" />
    <glyph glyph-name="Eth" unicode="&#xd0;" horiz-adv-x="1498" 
d="M108 0l1 227h-109v93h109l-1 207h936q212 0 313 -62t101 -198q0 -105 -65 -173q-61 -63 -165 -82q-66 -12 -179 -12h-941zM222 100h826q164 0 218 28q79 41 79 137q0 93 -72 129q-66 33 -226 33h-825v-107h222v-93h-222v-127z" />
    <glyph glyph-name="eth" unicode="&#xf0;" horiz-adv-x="1498" 
d="M108 0l1 227h-109v93h109l-1 207h936q212 0 313 -62t101 -198q0 -105 -65 -173q-61 -63 -165 -82q-66 -12 -179 -12h-941zM222 100h826q164 0 218 28q79 41 79 137q0 93 -72 129q-66 33 -226 33h-825v-107h222v-93h-222v-127z" />
    <glyph glyph-name="Yacute" unicode="&#xdd;" horiz-adv-x="1537" 
d="M829 232v-232h-124v232l-692 295h253l499 -214l526 214h233zM708 593l190 145h187l-275 -145h-102z" />
    <glyph glyph-name="yacute" unicode="&#xfd;" horiz-adv-x="1537" 
d="M829 232v-232h-124v232l-692 295h253l499 -214l526 214h233zM708 593l190 145h187l-275 -145h-102z" />
    <glyph glyph-name="Thorn" unicode="&#xde;" horiz-adv-x="1491" 
d="M195 191h969q94 0 130 13q43 16 43 59q0 41 -40 55q-34 13 -120 13h-982v-140zM80 527h115v-96h977q279 0 279 -170q0 -120 -117 -156q-45 -14 -143 -14h-996v-91h-115v527z" />
    <glyph glyph-name="thorn" unicode="&#xfe;" horiz-adv-x="1491" 
d="M195 191h969q94 0 130 13q43 16 43 59q0 41 -40 55q-34 13 -120 13h-982v-140zM80 527h115v-96h977q279 0 279 -170q0 -120 -117 -156q-45 -14 -143 -14h-996v-91h-115v527z" />
    <glyph glyph-name="minus" unicode="&#xad;" horiz-adv-x="833" 
d="M709 333v-69h-585v69h585z" />
    <glyph glyph-name="minus" unicode="&#x2212;" horiz-adv-x="833" 
d="M709 333v-69h-585v69h585z" />
    <glyph glyph-name="multiply" unicode="&#xd7;" horiz-adv-x="833" 
d="M420 346l229 229l48 -48l-229 -229l229 -229l-48 -47l-229 228l-229 -228l-48 47l229 229l-229 229l48 48z" />
    <glyph glyph-name="onesuperior" unicode="&#xb9;" horiz-adv-x="189" 
d="M149 211h-74v226h-57v46q41 3 71 44h60v-316z" />
    <glyph glyph-name="twosuperior" unicode="&#xb2;" horiz-adv-x="951" 
d="M907 211h-881v78q57 75 371 98q74 5 240 11q119 4 167 13q45 8 45 26q0 45 -355 45q-225 0 -460 -35v55q202 38 444 38q235 0 336 -21q111 -23 111 -79q0 -61 -111 -84q-51 -11 -167 -15l-142 -5q-301 -11 -407 -62v-3h809v-60z" />
    <glyph glyph-name="threesuperior" unicode="&#xb3;" horiz-adv-x="884" 
d="M26 239v57q161 -39 447 -39q310 0 310 55q0 35 -152 35h-526v56h523q156 0 156 35q0 44 -309 44q-232 0 -449 -41v57q226 41 445 41q204 0 290 -19q94 -22 94 -74q0 -45 -71 -70q73 -21 73 -68q0 -109 -386 -109q-290 0 -445 40z" />
    <glyph glyph-name="onehalf" unicode="&#xbd;" horiz-adv-x="1538" 
d="M142 232h-71v211h-54v43q40 3 68 41h57v-295zM42 0l598 533h132l-606 -533h-124zM1496 0h-841v73q55 71 354 92q71 5 229 10q114 3 158 11t44 25q0 42 -338 42q-206 0 -439 -32v51q193 35 423 35q225 0 322 -20q105 -21 105 -74q0 -47 -66 -68q-61 -20 -200 -24l-135 -4
q-282 -8 -389 -58v-3h773v-56z" />
    <glyph glyph-name="onequarter" unicode="&#xbc;" horiz-adv-x="1609" 
d="M142 232h-71v211h-54v43q40 3 68 41h57v-295zM42 0l598 533h132l-606 -533h-124zM1465 0h-72v63h-746v67l674 165h144v-176h114v-56h-114v-63zM1393 119v139l-594 -139v-3z" />
    <glyph glyph-name="threequarters" unicode="&#xbe;" horiz-adv-x="2273" 
d="M25 258v54q151 -37 426 -37q296 0 296 51q0 24 -62 31q-20 2 -83 2h-502v52h500q148 0 148 33q0 41 -294 41q-222 0 -429 -38v53q216 38 425 38q193 0 276 -18q90 -20 90 -68q0 -42 -68 -66q70 -20 70 -63q0 -102 -369 -102q-281 0 -424 37zM706 0l598 533h132l-606 -533
h-124zM2129 0h-72v63h-746v67l674 165h144v-176h114v-56h-114v-63zM2057 119v139l-594 -139v-3z" />
    <glyph glyph-name="glyph218" 
 />
    <glyph glyph-name="glyph219" 
 />
    <glyph glyph-name="glyph220" 
 />
    <glyph glyph-name="glyph221" 
 />
    <glyph glyph-name="glyph222" 
 />
    <glyph glyph-name="glyph223" 
 />
    <glyph glyph-name="glyph224" 
 />
    <glyph glyph-name="glyph225" 
 />
    <glyph glyph-name="glyph226" 
 />
    <glyph glyph-name="glyph227" 
 />
    <glyph glyph-name="glyph228" 
 />
    <glyph glyph-name="glyph229" 
 />
    <glyph glyph-name="glyph230" 
 />
    <glyph glyph-name="glyph231" 
 />
    <glyph glyph-name="glyph232" 
 />
    <glyph glyph-name="glyph233" 
 />
    <glyph glyph-name="glyph234" 
 />
    <glyph glyph-name="glyph235" 
 />
    <glyph glyph-name="glyph236" 
 />
    <glyph glyph-name="glyph237" 
 />
    <glyph glyph-name="glyph238" 
 />
    <glyph glyph-name="glyph239" 
 />
    <glyph glyph-name="glyph240" 
 />
    <glyph glyph-name="glyph241" 
 />
    <glyph glyph-name="glyph242" 
 />
    <glyph glyph-name="glyph243" 
 />
    <glyph glyph-name="glyph244" 
 />
    <glyph glyph-name="glyph245" 
 />
    <glyph glyph-name="glyph246" 
 />
    <glyph glyph-name="Lslash" unicode="&#x141;" horiz-adv-x="1330" 
d="M1303 0h-1198v167l-45 -36l-60 73l105 84v239h114v-145l89 73l61 -72l-150 -123v-160h1084v-100z" />
    <glyph glyph-name="lslash" unicode="&#x142;" horiz-adv-x="1330" 
d="M1303 0h-1198v167l-45 -36l-60 73l105 84v239h114v-145l89 73l61 -72l-150 -123v-160h1084v-100z" />
    <glyph glyph-name="Zcaron" unicode="&#x17d;" horiz-adv-x="1346" 
d="M20 0v82l1066 354h-1054v90h1294v-93l-1012 -345h1012v-88h-1306zM988 713l-287 -119h-65l-288 119h188l134 -62l134 62h184z" />
    <glyph glyph-name="zcaron" unicode="&#x17e;" horiz-adv-x="1346" 
d="M20 0v82l1066 354h-1054v90h1294v-93l-1012 -345h1012v-88h-1306zM988 713l-287 -119h-65l-288 119h188l134 -62l134 62h184z" />
    <glyph glyph-name="notequal" unicode="&#x2260;" horiz-adv-x="549" 
d="M222 139l-117 -117l-39 40l77 77h-95v58h148l79 78h-227v58h279l117 117l40 -40l-78 -77h95v-58h-147l-79 -78h226v-58h-279z" />
    <glyph glyph-name="infinity" unicode="&#x221e;" horiz-adv-x="713" 
d="M366 238q-65 -124 -157 -124q-64 0 -110 52t-46 132q0 83 40.5 134.5t105.5 51.5q91 0 148 -124q63 124 157 124q64 0 109.5 -52t45.5 -132q0 -83 -40 -134.5t-105 -51.5q-93 0 -148 124zM336 334q-47 86 -141 86q-51 0 -84 -35t-33 -90t30 -89t76 -34q44 0 81 42
q32 37 71 120zM376 264q46 -86 142 -86q51 0 84 35t33 90q0 56 -30 89.5t-80 33.5q-77 0 -149 -162z" />
    <glyph glyph-name="lessequal" unicode="&#x2264;" horiz-adv-x="549" 
d="M47 270v61l456 143v-64l-351 -110l351 -109v-64zM46 0v62h457v-62h-457z" />
    <glyph glyph-name="greaterequal" unicode="&#x2265;" horiz-adv-x="549" 
d="M46 127v64l351 109l-351 110v64l457 -143v-61zM46 0v62h457v-62h-457z" />
    <glyph glyph-name="partialdiff" unicode="&#x2202;" horiz-adv-x="494" 
d="M358 287q12 45 12 148q0 167 -63 167q-20 0 -50.5 -35t-55.5 -35q-37 0 -37 32q0 28 29 49.5t73 21.5q77 0 123 -69q47 -73 47 -199q0 -166 -66 -275q-64 -105 -156 -105q-67 0 -108 49q-44 51 -44 139q0 84 53 144.5t125 60.5q87 0 118 -93zM256 349q-52 0 -85 -58
q-35 -61 -35 -163q0 -119 84 -119q52 0 86.5 61.5t34.5 153.5q0 125 -85 125z" />
    <glyph glyph-name="summation" unicode="&#x2211;" horiz-adv-x="713" 
d="M633 514h-34q-33 108 -92 153t-172 45h-142l325 -446l-359 -394h212q114 0 164 27q56 30 91 121h35l-53 -236h-572l398 436l-384 524h550z" />
    <glyph glyph-name="product" unicode="&#x220f;" horiz-adv-x="823" 
d="M118 -184v896h-88v32h767v-32h-88v-896h88v-32h-264v32h84v896h-407v-896h84v-32h-264v32h88z" />
    <glyph glyph-name="pi" unicode="&#x3c0;" horiz-adv-x="549" 
d="M404 378q-4 -132 -4 -196q0 -99 8 -126q7 -23 31 -23q32 0 45 27t13 91h25q0 -161 -106 -161q-65 0 -87 53q-16 41 -16 151q0 -6 4 184h-137q0 -224 -13 -294q-19 -94 -80 -94q-46 0 -61 48q-9 27 -9 86h24q1 -52 37 -52q45 0 62 75q14 63 16 231h-22q-77 0 -87 -52h-23
q4 70 41 98q34 25 118 25h254q66 0 66 22v1h23v-3q0 -50 -22.5 -70.5t-75.5 -20.5q-16 -1 -24 0z" />
    <glyph glyph-name="integral" unicode="&#x222b;" horiz-adv-x="274" 
d="M283 757q35 0 58 -18.5t23 -48.5q0 -48 -49 -48q-29 0 -43.5 37t-29.5 37q-38 0 -48 -109q-3 -32 -12 -309q-9 -272 -47 -362q-50 -117 -144 -117q-35 0 -58 18.5t-23 48.5q0 47 49 47q29 0 44 -36.5t30 -36.5q36 0 47 109q4 44 12 309q8 269 47 362q49 117 144 117z" />
    <glyph glyph-name="Omega" unicode="&#x3a9;" horiz-adv-x="768" 
d="M593 90q48 0 66 16.5t22 69.5h23l-10 -176h-252v170q75 15 117 81q41 63 41 157q0 106 -59 173.5t-157 67.5t-157 -67t-59 -174q0 -94 40 -157q42 -66 118 -81v-170h-252l-10 176h23q3 -52 21.5 -69t66.5 -17h123v59q-119 22 -183.5 89.5t-64.5 169.5q0 120 91.5 193.5
t242.5 73.5t242.5 -73.5t91.5 -193.5q0 -101 -64.5 -169t-183.5 -90v-59h123z" />
    <glyph glyph-name="Omega" unicode="&#x2126;" horiz-adv-x="768" 
d="M593 90q48 0 66 16.5t22 69.5h23l-10 -176h-252v170q75 15 117 81q41 63 41 157q0 106 -59 173.5t-157 67.5t-157 -67t-59 -174q0 -94 40 -157q42 -66 118 -81v-170h-252l-10 176h23q3 -52 21.5 -69t66.5 -17h123v59q-119 22 -183.5 89.5t-64.5 169.5q0 120 91.5 193.5
t242.5 73.5t242.5 -73.5t91.5 -193.5q0 -101 -64.5 -169t-183.5 -90v-59h123z" />
    <glyph glyph-name="radical" unicode="&#x221a;" horiz-adv-x="549" 
d="M594 764h-57l-290 -784h-32l-156 431l-61 -22l-12 39l138 48l125 -346l252 681h93v-47z" />
    <glyph glyph-name="approxequal" unicode="&#x2248;" horiz-adv-x="549" 
d="M385 243q-33 0 -103.5 23.5t-111.5 23.5q-60 0 -152 -65v69q86 56 157 56q36 0 84 -14l82 -26q28 -7 49 -7q54 0 141 63v-69q-81 -54 -146 -54zM385 124q-32 0 -103 23.5t-117 23.5q-55 0 -147 -65v69q89 57 158 57q36 0 84 -15l81 -25q28 -8 49 -8q53 0 141 64v-70
q-79 -54 -146 -54z" />
    <glyph glyph-name="approxequal" unicode="&#x22f2;" horiz-adv-x="549" 
d="M385 243q-33 0 -103.5 23.5t-111.5 23.5q-60 0 -152 -65v69q86 56 157 56q36 0 84 -14l82 -26q28 -7 49 -7q54 0 141 63v-69q-81 -54 -146 -54zM385 124q-32 0 -103 23.5t-117 23.5q-55 0 -147 -65v69q89 57 158 57q36 0 84 -15l81 -25q28 -8 49 -8q53 0 141 64v-70
q-79 -54 -146 -54z" />
    <glyph glyph-name="Delta" unicode="&#x394;" horiz-adv-x="612" 
d="M595 0h-574l276 672h22zM72 32h399l-198 491z" />
    <glyph glyph-name="Delta" unicode="&#x2206;" horiz-adv-x="612" 
d="M595 0h-574l276 672h22zM72 32h399l-198 491z" />
    <glyph glyph-name="lozenge" unicode="&#x25ca;" horiz-adv-x="494" 
d="M247 807l244 -518l-244 -522l-244 522zM247 688l-188 -399l188 -403l188 403z" />
    <glyph glyph-name="fraction" unicode="&#x2044;" horiz-adv-x="450" 
d="M-138 0l598 533h132l-606 -533h-124z" />
    <glyph glyph-name="fi" unicode="&#xf001;" horiz-adv-x="1761" 
d="M80 0v527h1333v-94h-1218v-166h1218v-94h-1218v-173h-115zM1560 0v527h114v-527h-114z" />
    <glyph glyph-name="fl" unicode="&#xf002;" horiz-adv-x="2782" 
d="M80 0v527h1333v-94h-1218v-166h1218v-94h-1218v-173h-115zM2756 0h-1199v527h115v-427h1084v-100z" />
    <glyph glyph-name="dotlessi" unicode="&#x131;" horiz-adv-x="288" 
d="M87 0v527h114v-527h-114z" />
    <glyph glyph-name="breve" unicode="&#x2d8;" horiz-adv-x="500" 
d="M595 734q-2 -75 -86.5 -108.5t-260.5 -33.5q-181 0 -265 32q-88 34 -89 109h118q3 -71 230 -71q126 0 177 14q59 16 60 58h116z" />
    <glyph glyph-name="dotaccent" unicode="&#x2d9;" horiz-adv-x="500" 
d="M193 716h114v-123h-114v123z" />
    <glyph glyph-name="ring" unicode="&#x2da;" horiz-adv-x="500" 
d="M117 701q0 49 36 80.5t93 31.5q58 0 95.5 -32.5t37.5 -78.5q0 -47 -37 -78t-96 -31q-58 0 -93.5 30.5t-35.5 77.5zM185 703q0 -51 61 -51q27 0 44.5 15t17.5 37q0 21 -16.5 35t-43.5 14q-29 0 -46 -14t-17 -36z" />
    <glyph glyph-name="hungarumlaut" unicode="&#x2dd;" horiz-adv-x="500" 
d="M17 593l190 145h163l-251 -145h-102zM257 593l190 145h187l-275 -145h-102z" />
    <glyph glyph-name="ogonek" unicode="&#x2db;" horiz-adv-x="500" 
d="M411 -184q-55 -9 -113 -9q-111 0 -178 26q-62 24 -62 60q0 63 171 107h93q-154 -46 -154 -90q0 -61 158 -61q49 0 85 7v-40z" />
    <glyph glyph-name="caron" unicode="&#x2c7;" horiz-adv-x="500" 
d="M565 713l-287 -119h-65l-288 119h188l134 -62l134 62h184z" />
    <glyph glyph-name="glyph275" horiz-adv-x="319" 
 />
    </font>
</defs>
</svg>
